<?xml version="1.0" encoding="UTF-8" standalone="no"?>
<svg
   xmlns:dc="http://purl.org/dc/elements/1.1/"
   xmlns:cc="http://creativecommons.org/ns#"
   xmlns:rdf="http://www.w3.org/1999/02/22-rdf-syntax-ns#"
   xmlns:svg="http://www.w3.org/2000/svg"
   xmlns="http://www.w3.org/2000/svg"
   xmlns:sodipodi="http://sodipodi.sourceforge.net/DTD/sodipodi-0.dtd"
   xmlns:inkscape="http://www.inkscape.org/namespaces/inkscape"
   width="210mm"
   height="297mm"
   viewBox="0 0 210 297"
   version="1.1"
   id="svg8"
   inkscape:version="1.0 (4035a4fb49, 2020-05-01)"
   sodipodi:docname="numbers.svg">
  <defs
     id="defs2" />
  <sodipodi:namedview
     showborder="false"
     id="base"
     pagecolor="#ffffff"
     bordercolor="#666666"
     borderopacity="1.0"
     inkscape:pageopacity="0.0"
     inkscape:pageshadow="2"
     inkscape:zoom="0.22728452"
     inkscape:cx="774.55861"
     inkscape:cy="654.16076"
     inkscape:document-units="mm"
     inkscape:current-layer="layer1"
     inkscape:document-rotation="0"
     showgrid="false"
     showguides="false"
     inkscape:guide-bbox="true"
     inkscape:window-width="761"
     inkscape:window-height="705"
     inkscape:window-x="613"
     inkscape:window-y="-8"
     inkscape:window-maximized="0"
     inkscape:snap-bbox="false"
     inkscape:snap-grids="true"
     inkscape:snap-to-guides="false">
    <sodipodi:guide
       position="0,297.00001"
       orientation="-1,0"
       id="guide10"
       inkscape:label=""
       inkscape:locked="false"
       inkscape:color="rgb(0,0,255)" />
    <sodipodi:guide
       position="0,297.00002"
       orientation="0,-1"
       id="guide12" />
    <sodipodi:guide
       position="25,297.00003"
       orientation="-1,0"
       id="guide14"
       inkscape:label=""
       inkscape:locked="false"
       inkscape:color="rgb(0,0,255)" />
    <sodipodi:guide
       position="50,297.00002"
       orientation="-1,0"
       id="guide16"
       inkscape:label=""
       inkscape:locked="false"
       inkscape:color="rgb(0,0,255)" />
    <sodipodi:guide
       position="75,297.00002"
       orientation="-1,0"
       id="guide18"
       inkscape:label=""
       inkscape:locked="false"
       inkscape:color="rgb(0,0,255)" />
    <sodipodi:guide
       position="0,272"
       orientation="0,1"
       id="guide20"
       inkscape:label=""
       inkscape:locked="false"
       inkscape:color="rgb(0,0,255)" />
    <sodipodi:guide
       position="0,247"
       orientation="0,1"
       id="guide22"
       inkscape:label=""
       inkscape:locked="false"
       inkscape:color="rgb(0,0,255)" />
    <sodipodi:guide
       position="0,222"
       orientation="0,1"
       id="guide26"
       inkscape:label=""
       inkscape:locked="false"
       inkscape:color="rgb(0,0,255)" />
    <inkscape:grid
       type="xygrid"
       id="grid40"
       visible="true" />
  </sodipodi:namedview>
  <metadata
     id="metadata5">
    <rdf:RDF>
      <cc:Work
         rdf:about="">
        <dc:format>image/svg+xml</dc:format>
        <dc:type
           rdf:resource="http://purl.org/dc/dcmitype/StillImage" />
        <dc:title></dc:title>
      </cc:Work>
    </rdf:RDF>
  </metadata>
  <g
     inkscape:label="Lager 1"
     inkscape:groupmode="layer"
     id="layer1">
    <path
       style="fill:#000000;stroke:#000000;stroke-width:0.264583px;stroke-linecap:butt;stroke-linejoin:miter;stroke-opacity:1"
       d="m 155,75 c -5,0 -15,0 -15,-25 V -5.0702e-7 C 135,15 130,20 115,25 c 7.53368,0.408938 17.83017,-3.190002 20,5 v 20 c 0,25 -10,24.999999 -15,25 z"
       id="path46"
       sodipodi:nodetypes="cccccccc" />
    <path
       style="fill:#000000;stroke:#000000;stroke-width:0.264583px;stroke-linecap:butt;stroke-linejoin:miter;stroke-opacity:1"
       d="M 250,0 H 200 V 25.00002 C 205,0 210,5.000019 250,5.000019 c 15,0 20,10.000001 20,20.000001 -2.06084,18.92583 -48.31964,30.00274 -70,45 v 5 h 75 v -25 c -4.74812,17.91242 0,20 -50,20 h -15 c 23.28107,-14.74653 65,-25 65,-45 C 275,15.00002 275,0 250,0 Z"
       id="path50"
       sodipodi:nodetypes="ccccccccccccc" />
    <path
       style="fill:#000000;stroke:#000000;stroke-width:0.264583px;stroke-linecap:butt;stroke-linejoin:miter;stroke-opacity:1"
       d="m 350,1.9e-5 c 25,0 25,30.000001 25,35.000001 v 5 c 0,5 0,35 -25,35 h -50 v -25 C 299.94049,73.936917 305,70 345,70 c 20,0 25.48751,-11.063482 25,-25 0,-1.203796 0,-5 -5,-5 -40,0 -36.2038,-2.592407 -40,5 V 30 c 3.40249,6.804984 0,5 40,5 5,0 5,-3.402492 5,-5 C 370,15.793386 365,5 345,5 305,5 300,1.236138 300,25.00002 V 0 Z"
       id="three"
       sodipodi:nodetypes="ccccccccccccccccc" />
    <path
       style="fill:#000000;stroke:#000000;stroke-width:0.264583px;stroke-linecap:butt;stroke-linejoin:miter;stroke-opacity:1"
       d="m 425,0 h -25 v 35 c 0,5 0,5 5,5 17.84785,0 36.66669,0 60,0 5,0 5,0 5,5 v 5 c 0,25 0,20 -20,25 h 25 V 0 L 450,-2e-5 C 470,5 470,0 470,25 v 5 c 0,5 0,5 -5,5 h -55 c -5,0 -5,0 -5,-5 V 25 C 405,0 405,5 425,0 Z"
       id="path71"
       sodipodi:nodetypes="cccccccccccccccccc" />
    <path
       style="fill:#000000;stroke:#000000;stroke-width:0.264583px;stroke-linecap:butt;stroke-linejoin:miter;stroke-opacity:1"
       d="m 0,150 c 5,20 10,20 25,20 h 10 10 c 15,0 25,-5 25,-20 0,-10 0,-20 -20,-20 H 25 c -5,0 -15,0 -25,10 v -15 -25 h 25 25 l 25,-1.9e-5 V 125 C 70,110 70,105 50,105 H 25 C 5,105 5,105 5,125 v 5 c 10,-5 15,-5 20,-5 h 25 c 15,0 25,5 25,20 v 10 c 0,10 -10,20 -25,20 H 25 0 Z"
       id="path75"
       sodipodi:nodetypes="cccccccccccccccccccccccccc" />
    <path
       id="path79"
       style="color:#000000;font-style:normal;font-variant:normal;font-weight:normal;font-stretch:normal;font-size:medium;line-height:normal;font-family:sans-serif;font-variant-ligatures:normal;font-variant-position:normal;font-variant-caps:normal;font-variant-numeric:normal;font-variant-alternates:normal;font-variant-east-asian:normal;font-feature-settings:normal;font-variation-settings:normal;text-indent:0;text-align:start;text-decoration:none;text-decoration-line:none;text-decoration-style:solid;text-decoration-color:#000000;letter-spacing:normal;word-spacing:normal;text-transform:none;writing-mode:lr-tb;direction:ltr;text-orientation:mixed;dominant-baseline:auto;baseline-shift:baseline;text-anchor:start;white-space:normal;shape-padding:0;shape-margin:0;inline-size:0;clip-rule:nonzero;display:inline;overflow:visible;visibility:visible;opacity:1;isolation:auto;mix-blend-mode:normal;color-interpolation:sRGB;color-interpolation-filters:linearRGB;solid-color:#000000;solid-opacity:1;vector-effect:none;fill:#000000;fill-opacity:1;fill-rule:nonzero;stroke:#000000;stroke-width:0.26;stroke-linecap:butt;stroke-linejoin:miter;stroke-miterlimit:4;stroke-dasharray:none;stroke-dashoffset:0;stroke-opacity:1;color-rendering:auto;image-rendering:auto;shape-rendering:auto;text-rendering:auto;enable-background:accumulate;stop-color:#000000;stop-opacity:1"
       d="m 125,100 c -24.39206,-2e-5 -24.98522,14.27935 -24.99964,47.4821 C 100,148.30964 100,149.14894 100,150.00007 c 0,7.24416 4.5528,13.56532 11.36933,17.97048 6.81653,4.40516 16.01203,7.02954 26.13071,7.02954 10.11868,0 19.31417,-2.62438 26.1307,-7.02954 6.81653,-4.40516 11.36933,-10.72632 11.36933,-17.97048 0,-7.24416 -4.5528,-13.6573 -11.36933,-18.06247 -6.81653,-4.40516 -16.01202,-6.93756 -26.1307,-6.93756 -10.11868,0 -19.31418,2.5324 -26.13071,6.93756 -2.41648,1.56165 -4.5487,3.37543 -6.29419,5.38934 -0.0751,-32.32692 6.33008,-31.91393 19.92488,-32.32671 h 25.00003 c 25,0 25.00002,4.99981 25.00002,19.99981 v -25.00002 z m 12.50004,30.00026 c 9.31213,0 17.70784,1.99229 23.62491,5.81618 5.91707,3.82389 8.87491,8.87068 8.87491,14.18363 0,5.31294 -2.95784,10.26776 -8.87491,14.09164 -5.91707,3.82389 -14.31278,5.90817 -23.62491,5.90817 -9.31214,0 -17.70785,-2.08428 -23.62492,-5.90817 -5.91707,-3.82388 -8.87491,-8.7787 -8.87491,-14.09164 0,-5.31295 2.95784,-10.35974 8.87491,-14.18363 5.91707,-3.82389 14.31278,-5.81618 23.62492,-5.81618 z"
       sodipodi:nodetypes="csssssssssccscccsssssssss" />
    <path
       style="fill:#000000;stroke:#000000;stroke-width:0.264583px;stroke-linecap:butt;stroke-linejoin:miter;stroke-opacity:1"
       d="m 200,125 v -25 h 75 v 75 h -25 c 20,-5 20,-5 20,-30 v -40 h -40 c -25,0 -25,0 -30,20 z"
       id="path914"
       sodipodi:nodetypes="ccccccccc" />
    <path
       id="path918"
       style="color:#000000;font-style:normal;font-variant:normal;font-weight:normal;font-stretch:normal;font-size:medium;line-height:normal;font-family:sans-serif;font-variant-ligatures:normal;font-variant-position:normal;font-variant-caps:normal;font-variant-numeric:normal;font-variant-alternates:normal;font-variant-east-asian:normal;font-feature-settings:normal;font-variation-settings:normal;text-indent:0;text-align:start;text-decoration:none;text-decoration-line:none;text-decoration-style:solid;text-decoration-color:#000000;letter-spacing:normal;word-spacing:normal;text-transform:none;writing-mode:lr-tb;direction:ltr;text-orientation:mixed;dominant-baseline:auto;baseline-shift:baseline;text-anchor:start;white-space:normal;shape-padding:0;shape-margin:0;inline-size:0;clip-rule:nonzero;display:inline;overflow:visible;visibility:visible;opacity:1;isolation:auto;mix-blend-mode:normal;color-interpolation:sRGB;color-interpolation-filters:linearRGB;solid-color:#000000;solid-opacity:1;vector-effect:none;fill:#000000;fill-opacity:1;fill-rule:nonzero;stroke:#000000;stroke-width:0.259625;stroke-linecap:butt;stroke-linejoin:miter;stroke-miterlimit:4;stroke-dasharray:none;stroke-dashoffset:0;stroke-opacity:1;color-rendering:auto;image-rendering:auto;shape-rendering:auto;text-rendering:auto;enable-background:accumulate;stop-color:#000000;stop-opacity:1"
       d="m 337.50119,100.01802 c -10.10755,0 -19.29294,2.52736 -26.10197,6.92467 -6.80903,4.3973 -11.35631,10.79952 -11.35631,18.03076 0,4.60854 1.84898,8.84164 4.95135,12.44522 -3.10249,3.63064 -4.95135,7.90105 -4.95135,12.5097 0,7.23124 4.54728,13.54164 11.35631,17.93895 6.80903,4.3973 15.99442,7.01649 26.10197,7.01649 10.10756,0 19.29346,-2.61919 26.1025,-7.01649 6.80904,-4.39731 11.35632,-10.70771 11.35632,-17.93895 0,-4.60865 -1.84887,-8.87906 -4.95136,-12.5097 3.10236,-3.60358 4.95136,-7.83668 4.95136,-12.44522 0,-7.23124 -4.54728,-13.63346 -11.35632,-18.03076 -6.80904,-4.39731 -15.99494,-6.92467 -26.1025,-6.92467 z m 0,4.99077 c 9.3019,0 17.6889,1.98926 23.59946,5.80633 5.91056,3.81707 8.86515,8.85486 8.86515,14.15833 0,3.24323 -1.10689,6.35209 -3.31707,9.15157 -0.95285,-0.78909 -1.97059,-1.53301 -3.04504,-2.22689 -6.80904,-4.39731 -15.99494,-6.92468 -26.1025,-6.92468 -10.10755,0 -19.29294,2.52737 -26.10197,6.92468 -1.07444,0.69388 -2.09219,1.4378 -3.04504,2.22689 -2.21019,-2.79948 -3.31708,-5.90834 -3.31708,-9.15157 0,-5.30347 2.95458,-10.34126 8.86516,-14.15833 5.91056,-3.81707 14.29704,-5.80633 23.59893,-5.80633 z m -23.59893,30.76177 c 5.91056,-3.81707 14.29704,-5.80633 23.59893,-5.80633 9.3019,0 17.6889,1.98926 23.59946,5.80633 0.8104,0.52335 1.56323,1.06997 3.89935,3.28359 3.8549,4.47682 4.9658,7.62523 4.9658,10.87422 0,5.30347 -2.95459,10.24996 -8.86515,14.06703 -5.91056,3.81707 -14.29756,5.89763 -23.59946,5.89763 -9.30189,0 -17.68837,-2.08056 -23.59893,-5.89763 -5.91058,-3.81707 -8.86516,-8.76356 -8.86516,-14.06703 0,-3.24899 1.11089,-6.3974 4.96581,-10.87422 2.33612,-2.21362 3.08895,-2.76024 3.89935,-3.28359 z"
       sodipodi:nodetypes="ssscssssscsssssscssscssscsscssssscc" />
    <path
       id="path942"
       style="color:#000000;font-style:normal;font-variant:normal;font-weight:normal;font-stretch:normal;font-size:medium;line-height:normal;font-family:sans-serif;font-variant-ligatures:normal;font-variant-position:normal;font-variant-caps:normal;font-variant-numeric:normal;font-variant-alternates:normal;font-variant-east-asian:normal;font-feature-settings:normal;font-variation-settings:normal;text-indent:0;text-align:start;text-decoration:none;text-decoration-line:none;text-decoration-style:solid;text-decoration-color:#000000;letter-spacing:normal;word-spacing:normal;text-transform:none;writing-mode:lr-tb;direction:ltr;text-orientation:mixed;dominant-baseline:auto;baseline-shift:baseline;text-anchor:start;white-space:normal;shape-padding:0;shape-margin:0;inline-size:0;clip-rule:nonzero;display:inline;overflow:visible;visibility:visible;opacity:1;isolation:auto;mix-blend-mode:normal;color-interpolation:sRGB;color-interpolation-filters:linearRGB;solid-color:#000000;solid-opacity:1;vector-effect:none;fill:#000000;fill-opacity:1;fill-rule:nonzero;stroke:#000000;stroke-width:0.26;stroke-linecap:butt;stroke-linejoin:miter;stroke-miterlimit:4;stroke-dasharray:none;stroke-dashoffset:0;stroke-opacity:1;color-rendering:auto;image-rendering:auto;shape-rendering:auto;text-rendering:auto;enable-background:accumulate;stop-color:#000000;stop-opacity:1"
       d="m 475.15018,175.13717 c 0,-10 -0.0899,-14.25204 -0.0754,-47.45479 3.6e-4,-0.82754 3.6e-4,-1.66684 3.6e-4,-2.51796 0,-7.24416 -4.5528,-13.56532 -11.36933,-17.97048 -6.81653,-4.40516 -16.01203,-7.02952 -26.13071,-7.02952 -10.11868,0 -19.31417,2.62436 -26.1307,7.02952 -6.81653,4.40516 -11.36933,10.72632 -11.36933,17.97048 0,7.24416 4.5528,13.6573 11.36933,18.06246 6.81653,4.40516 16.01202,6.93756 26.1307,6.93756 10.11868,0 19.31418,-2.5324 26.13071,-6.93756 2.41648,-1.56164 4.5487,-3.37543 6.29419,-5.38933 0.0751,32.32691 -9.84979,37.29962 -19.84979,37.29962 z m -37.57511,-29.97294 c -9.31213,0 -17.70784,-1.99229 -23.62491,-5.81618 -5.91707,-3.82389 -8.87491,-8.87069 -8.87491,-14.18363 0,-5.31295 2.95784,-10.26776 8.87491,-14.09165 5.91707,-3.82389 14.31278,-5.90817 23.62491,-5.90817 9.31214,0 17.70785,2.08428 23.62492,5.90817 5.91707,3.82389 8.87491,8.7787 8.87491,14.09165 0,5.31294 -2.95784,10.35974 -8.87491,14.18363 -5.91707,3.82389 -14.31278,5.81618 -23.62492,5.81618 z"
       sodipodi:nodetypes="cssssssssscccsssssssss" />
    <g
       id="g42">
      <path
         transform="scale(0.26458333)"
         d="M 141.5293 113.38672 A 28.346457 28.346457 0 0 0 113.38672 141.73242 A 28.346457 28.346457 0 0 0 141.73242 170.07812 A 28.346457 28.346457 0 0 0 170.07812 141.73242 A 28.346457 28.346457 0 0 0 141.73242 113.38672 A 28.346457 28.346457 0 0 0 141.5293 113.38672 z M 141.62305 132.2832 A 9.4488189 9.4488189 0 0 1 141.73242 132.2832 A 9.4488189 9.4488189 0 0 1 151.18164 141.73242 A 9.4488189 9.4488189 0 0 1 141.73242 151.18164 A 9.4488189 9.4488189 0 0 1 132.2832 141.73242 A 9.4488189 9.4488189 0 0 1 141.62305 132.2832 z "
         style="opacity:1;fill:#000000;fill-opacity:1;stroke:#000000;stroke-width:0.982677;stroke-miterlimit:4;stroke-dasharray:none;stroke-opacity:1"
         id="path958" />
      <path
         d="M 5,34.999998 C 5,20 20,5 34.999998,5 h 5.000001 C 55,5 70,20 69.999999,34.999998 v 5.000001 C 70,55 55,70 39.999999,69.999999 H 34.999998 C 20,70 5,55 5,39.999999 Z M 0,30 C 0,15 15,0 35,0 h 5 C 60,0 75,15 75,30 V 44.999999 C 75,60 60,75 40,75 H 35 C 15,75 0,60 0,45 Z"
         style="fill:#000000;fill-rule:evenodd;stroke:#000000;stroke-width:0.264583px;stroke-linecap:butt;stroke-linejoin:miter;stroke-opacity:1"
         id="path28" />
    </g>
  </g>
</svg>
