<?xml version="1.0" encoding="UTF-8" standalone="no"?>
<svg
   xmlns:dc="http://purl.org/dc/elements/1.1/"
   xmlns:cc="http://creativecommons.org/ns#"
   xmlns:rdf="http://www.w3.org/1999/02/22-rdf-syntax-ns#"
   xmlns:svg="http://www.w3.org/2000/svg"
   xmlns="http://www.w3.org/2000/svg"
   xmlns:sodipodi="http://sodipodi.sourceforge.net/DTD/sodipodi-0.dtd"
   xmlns:inkscape="http://www.inkscape.org/namespaces/inkscape"
   sodipodi:docname="sm4.svg"
   inkscape:version="1.0 (4035a4fb49, 2020-05-01)"
   id="svg232"
   version="1.1"
   viewBox="0 0 53.6575 44.026667"
   height="64"
   width="78">
  <defs
     id="defs226" />
  <sodipodi:namedview
     inkscape:window-maximized="0"
     inkscape:window-y="-8"
     inkscape:window-x="-8"
     inkscape:window-height="705"
     inkscape:window-width="781"
     showgrid="false"
     inkscape:document-rotation="0"
     inkscape:current-layer="layer1"
     inkscape:document-units="mm"
     inkscape:cy="37.148141"
     inkscape:cx="48.061378"
     inkscape:zoom="7.2936112"
     inkscape:pageshadow="2"
     inkscape:pageopacity="0.0"
     borderopacity="1.0"
     bordercolor="#666666"
     pagecolor="#ffffff"
     id="base"
     units="px"
     scale-x="2.6"
     showguides="true"
     inkscape:guide-bbox="true">
    <sodipodi:guide
       position="0,0"
       orientation="0,1"
       id="guide86"
       inkscape:label=""
       inkscape:locked="true"
       inkscape:color="rgb(0,0,255)" />
  </sodipodi:namedview>
  <metadata
     id="metadata229">
    <rdf:RDF>
      <cc:Work
         rdf:about="">
        <dc:format>image/svg+xml</dc:format>
        <dc:type
           rdf:resource="http://purl.org/dc/dcmitype/StillImage" />
        <dc:title />
      </cc:Work>
    </rdf:RDF>
  </metadata>
  <g
     id="layer1"
     inkscape:groupmode="layer"
     inkscape:label="Lager 1">
    <rect
       y="27.687336"
       x="0.58899993"
       height="10.556541"
       width="32.257641"
       id="rect1089"
       style="fill:#2c5aa0;stroke:#ffffff;stroke-width:0;stroke-linecap:round;stroke-linejoin:round;stroke-miterlimit:4;stroke-dasharray:none" />
    <path
       inkscape:label="TeethHigh"
       id="path1248"
       d="m 0.5325126,19.051197 3.5500485,10.650252 3.5500485,-10.650252 3.5500484,10.650252 3.550049,-10.650252 3.550048,10.650252 3.550262,-10.650252 3.549835,10.650252 3.55005,-10.650252 3.550367,10.650252 -2.76e-4,-15.975374 H 0.5325126 Z"
       style="fill:#ffffff;fill-rule:evenodd;stroke:#000000;stroke-width:0.281788px;stroke-linecap:butt;stroke-linejoin:miter;stroke-opacity:1" />
    <path
       style="fill:#d5e5ff;stroke:#ffffff;stroke-width:0;stroke-linecap:round;stroke-linejoin:round;stroke-miterlimit:4;stroke-dasharray:none"
       id="path264"
       sodipodi:type="arc"
       sodipodi:cx="24.517241"
       sodipodi:cy="15.670375"
       sodipodi:rx="5.6156301"
       sodipodi:ry="6.4815927"
       sodipodi:start="0"
       sodipodi:end="6.2769875"
       sodipodi:open="true"
       sodipodi:arc-type="arc"
       d="m 30.132871,15.670375 a 5.6156301,6.4815927 0 0 1 -5.606929,6.481585 5.6156301,6.4815927 0 0 1 -5.624305,-6.461499 5.6156301,6.4815927 0 0 1 5.5895,-6.5016088 5.6156301,6.4815927 0 0 1 5.641626,6.4413508" />
    <path
       sodipodi:nodetypes="cccccccccccccc"
       style="fill:#ffffff;fill-rule:evenodd;stroke:#000000;stroke-width:0.281788px;stroke-linecap:butt;stroke-linejoin:miter;stroke-opacity:1"
       d="M 32.503263,45.03426 28.953107,34.738651 25.403059,45.388903 21.853011,34.738651 18.302962,45.388903 14.752914,34.738651 11.202652,45.388903 7.6528171,34.738651 4.1027686,45.388903 0.5524007,34.738651 0.5525072,45.03426 c 5.3251259,5.325137 5.3251259,5.325137 10.2898048,5.325137 h 16.335825 c 3.322944,-1.592788 4.260207,-2.484683 5.325126,-5.325137 z"
       id="path1256" />
    <rect
       ry="0"
       rx="0"
       y="38.243877"
       x="0.58899993"
       height="16.466892"
       width="32.257641"
       id="rect260"
       style="fill:#ffffff;stroke:#ffffff;stroke-width:0.758139;stroke-linecap:round;stroke-linejoin:round" />
    <path
       d="M 14.065317,15.77534 A 5.4581833,6.6915226 0 0 1 8.6155911,22.466855 5.4581833,6.6915226 0 0 1 3.1489768,15.796076 5.4581833,6.6915226 0 0 1 8.5817624,9.0838898 5.4581833,6.6915226 0 0 1 14.065212,15.733868"
       sodipodi:arc-type="arc"
       sodipodi:open="true"
       sodipodi:end="6.2769875"
       sodipodi:start="0"
       sodipodi:ry="6.6915226"
       sodipodi:rx="5.4581833"
       sodipodi:cy="15.77534"
       sodipodi:cx="8.6071339"
       sodipodi:type="arc"
       id="path262"
       style="fill:#d5e5ff;stroke:#ffffff;stroke-width:0;stroke-linecap:round;stroke-linejoin:round;stroke-miterlimit:4;stroke-dasharray:none" />
    <g
       inkscape:transform-center-y="4.0810904"
       inkscape:transform-center-x="-0.74998541"
       id="g1282"
       transform="matrix(-0.12529341,-0.51013023,0.41706522,-0.15325169,20.552375,19.352313)">
      <circle
         r="4.9999995"
         cy="-25"
         cx="4.9999995"
         id="circle1278"
         style="fill:#000000;fill-opacity:1;stroke:#00000f;stroke-width:0;stroke-linecap:round;stroke-linejoin:bevel;stroke-miterlimit:4;stroke-dasharray:none;stroke-opacity:1" />
      <ellipse
         ry="1.8031007"
         rx="2.4999998"
         cy="-25"
         cx="4.9999995"
         id="circle1280"
         style="fill:#ffffff;fill-opacity:1;stroke:#00000f;stroke-width:0;stroke-linecap:round;stroke-linejoin:bevel;stroke-miterlimit:4;stroke-dasharray:none;stroke-opacity:1" />
    </g>
    <g
       inkscape:transform-center-y="3.2986446"
       inkscape:transform-center-x="-0.90828203"
       transform="matrix(-0.0486997,-0.53028107,0.53028105,-0.04869969,38.410215,21.312562)"
       id="g1288">
      <circle
         style="fill:#000000;fill-opacity:1;stroke:#00000f;stroke-width:0;stroke-linecap:round;stroke-linejoin:bevel;stroke-miterlimit:4;stroke-dasharray:none;stroke-opacity:1"
         id="circle1284"
         cx="4.9999995"
         cy="-25"
         r="4.9999995" />
      <ellipse
         ry="1.5243411"
         rx="2.4999998"
         style="fill:#ffffff;fill-opacity:1;stroke:#00000f;stroke-width:0;stroke-linecap:round;stroke-linejoin:bevel;stroke-miterlimit:4;stroke-dasharray:none;stroke-opacity:1"
         id="circle1286"
         cx="4.9999995"
         cy="-25" />
    </g>
    <path
       d="m 8.5199886,1.0616793 c -4.4251903,0 -7.987476,3.3251045 -7.987476,7.4552723 V 36.207571 c 0,4.130168 3.5622857,7.455272 7.987476,7.455272 H 24.495495 c 4.425191,0 7.98803,-3.325104 7.98803,-7.455272 V 8.5169516 c 0,-4.1301678 -3.562839,-7.4552723 -7.98803,-7.4552723 z m 0,7.9874771 c 2.9501194,0 5.3253494,2.3752316 5.3253494,5.3253506 v 2.662676 c 0,2.95012 -2.37523,5.324802 -5.3253494,5.324802 -2.9501198,0 -5.3247958,-2.374682 -5.3247958,-5.324802 v -2.662676 c 0,-2.950119 2.374676,-5.3253506 5.3247958,-5.3253506 z m 15.9755064,0 c 2.950119,0 5.325348,2.3752316 5.325348,5.3253506 v 2.662676 c 0,2.95012 -2.375229,5.324802 -5.325348,5.324802 -2.95012,0 -5.324807,-2.374682 -5.324807,-5.324802 v -2.662676 c 0,-2.950119 2.374687,-5.3253506 5.324807,-5.3253506 z M 2.0883973,27.687337 H 30.921025 c 0.570483,0 1.029743,0.474938 1.029743,1.064962 v 8.520233 c 0,0.590014 -0.45926,1.064962 -1.029743,1.064962 H 2.0883973 c -0.5704808,0 -1.0297303,-0.474948 -1.0297303,-1.064962 v -8.520233 c 0,-0.590024 0.4592495,-1.064962 1.0297303,-1.064962 z"
       style="fill:#afc6e9;stroke:#00000f;stroke-width:1.06503;stroke-linecap:square;stroke-linejoin:bevel;stroke-miterlimit:4;stroke-dasharray:none"
       id="rect1244" />
    <path
       sodipodi:nodetypes="cccc"
       id="path1268"
       d="m 14.910353,21.798608 c 0,1.597537 -2.662563,2.13005 -1.065025,2.662563 1.781169,0.714263 3.55614,0.705759 5.325126,0 1.597537,-0.532513 -1.065026,-1.065026 -1.065026,-2.662563"
       style="fill:none;fill-rule:evenodd;stroke:#000000;stroke-width:0.852019;stroke-linecap:round;stroke-linejoin:round;stroke-miterlimit:4;stroke-dasharray:none;stroke-opacity:1" />
    <path
       style="fill:none;fill-rule:evenodd;stroke:#000000;stroke-width:0.687917px;stroke-linecap:butt;stroke-linejoin:miter;stroke-opacity:1"
       d="m 34.20461,40.906189 c 8.388074,-2.951225 13.763044,0.79323 9.661764,-8.200282 -0.656753,-1.440162 -6.126022,1.61449 -7.656452,-0.96924 C 33.185311,26.630405 33.426685,7.1822939 34.20893,4.8686866 35.224133,1.8660706 47.149386,-1.2812333 50.73684,3.5874533 54.324293,8.45614 51.591071,22.763338 52.487934,31.200391 c 0.231428,2.177107 0.532859,16.046355 -18.283324,9.705798 z"
       id="path88"
       sodipodi:nodetypes="csssssc" />
  </g>
</svg>
