<?xml version="1.0" encoding="UTF-8" standalone="no"?>
<svg
   xmlns:dc="http://purl.org/dc/elements/1.1/"
   xmlns:cc="http://creativecommons.org/ns#"
   xmlns:rdf="http://www.w3.org/1999/02/22-rdf-syntax-ns#"
   xmlns:svg="http://www.w3.org/2000/svg"
   xmlns="http://www.w3.org/2000/svg"
   xmlns:sodipodi="http://sodipodi.sourceforge.net/DTD/sodipodi-0.dtd"
   xmlns:inkscape="http://www.inkscape.org/namespaces/inkscape"
   width="78"
   height="64"
   viewBox="0 0 53.6575 44.026667"
   version="1.1"
   id="svg232"
   inkscape:version="1.0 (4035a4fb49, 2020-05-01)"
   sodipodi:docname="sm5.svg">
  <defs
     id="defs226" />
  <sodipodi:namedview
     inkscape:guide-bbox="true"
     showguides="true"
     scale-x="2.6"
     units="px"
     id="base"
     pagecolor="#ffffff"
     bordercolor="#666666"
     borderopacity="1.0"
     inkscape:pageopacity="0.0"
     inkscape:pageshadow="2"
     inkscape:zoom="7.4867383"
     inkscape:cx="38.65637"
     inkscape:cy="28.249482"
     inkscape:document-units="mm"
     inkscape:current-layer="layer1"
     inkscape:document-rotation="0"
     showgrid="false"
     inkscape:window-width="792"
     inkscape:window-height="696"
     inkscape:window-x="582"
     inkscape:window-y="0"
     inkscape:window-maximized="0">
    <sodipodi:guide
       inkscape:color="rgb(0,0,255)"
       inkscape:locked="true"
       inkscape:label=""
       id="guide86"
       orientation="0,1"
       position="0,0" />
  </sodipodi:namedview>
  <metadata
     id="metadata229">
    <rdf:RDF>
      <cc:Work
         rdf:about="">
        <dc:format>image/svg+xml</dc:format>
        <dc:type
           rdf:resource="http://purl.org/dc/dcmitype/StillImage" />
        <dc:title></dc:title>
      </cc:Work>
    </rdf:RDF>
  </metadata>
  <g
     inkscape:label="Lager 1"
     inkscape:groupmode="layer"
     id="layer1">
    <rect
       style="fill:#2c5aa0;stroke:#ffffff;stroke-width:0;stroke-linecap:round;stroke-linejoin:round;stroke-miterlimit:4;stroke-dasharray:none"
       id="rect1089"
       width="32.257641"
       height="10.556541"
       x="0.58899993"
       y="27.687336" />
    <path
       style="fill:#ffffff;fill-rule:evenodd;stroke:#000000;stroke-width:0.285049px;stroke-linecap:butt;stroke-linejoin:miter;stroke-opacity:1"
       d="M 0.53414287,17.777395 4.0995568,28.628654 7.6649707,17.777395 11.230384,28.628654 14.795799,17.777395 18.361212,28.628654 21.92684,17.777395 25.49204,28.628654 29.057455,17.777395 32.62319,28.628654 32.622912,12.351872 H 0.53414287 Z"
       id="path1248"
       inkscape:label="TeethHigh" />
    <path
       d="m 30.132871,15.670375 a 5.6156301,6.4815927 0 0 1 -5.606929,6.481585 5.6156301,6.4815927 0 0 1 -5.624305,-6.461499 5.6156301,6.4815927 0 0 1 5.5895,-6.5016088 5.6156301,6.4815927 0 0 1 5.641626,6.4413508"
       sodipodi:arc-type="arc"
       sodipodi:open="true"
       sodipodi:end="6.2769875"
       sodipodi:start="0"
       sodipodi:ry="6.4815927"
       sodipodi:rx="5.6156301"
       sodipodi:cy="15.670375"
       sodipodi:cx="24.517241"
       sodipodi:type="arc"
       id="path264"
       style="fill:#d5e5ff;stroke:#ffffff;stroke-width:0;stroke-linecap:round;stroke-linejoin:round;stroke-miterlimit:4;stroke-dasharray:none" />
    <path
       id="path1256"
       d="M 32.503263,47.785926 28.953107,37.490317 25.403059,48.140569 21.853011,37.490317 18.302962,48.140569 14.752914,37.490317 11.202652,48.140569 7.6528171,37.490317 4.1027686,48.140569 0.5524007,37.490317 0.5525072,47.785926 c 5.3251259,5.325137 5.3251259,5.325137 10.2898048,5.325137 h 16.335825 c 3.322944,-1.592788 4.260207,-2.484683 5.325126,-5.325137 z"
       style="fill:#ffffff;fill-rule:evenodd;stroke:#000000;stroke-width:0.281788px;stroke-linecap:butt;stroke-linejoin:miter;stroke-opacity:1"
       sodipodi:nodetypes="cccccccccccccc" />
    <rect
       style="fill:#ffffff;stroke:#ffffff;stroke-width:0.758139;stroke-linecap:round;stroke-linejoin:round"
       id="rect260"
       width="32.257641"
       height="16.466892"
       x="0.58899993"
       y="38.243877"
       rx="0"
       ry="0" />
    <path
       style="fill:#d5e5ff;stroke:#ffffff;stroke-width:0;stroke-linecap:round;stroke-linejoin:round;stroke-miterlimit:4;stroke-dasharray:none"
       id="path262"
       sodipodi:type="arc"
       sodipodi:cx="8.6071339"
       sodipodi:cy="15.77534"
       sodipodi:rx="5.4581833"
       sodipodi:ry="6.6915226"
       sodipodi:start="0"
       sodipodi:end="6.2769875"
       sodipodi:open="true"
       sodipodi:arc-type="arc"
       d="M 14.065317,15.77534 A 5.4581833,6.6915226 0 0 1 8.6155911,22.466855 5.4581833,6.6915226 0 0 1 3.1489768,15.796076 5.4581833,6.6915226 0 0 1 8.5817624,9.0838898 5.4581833,6.6915226 0 0 1 14.065212,15.733868" />
    <g
       transform="matrix(-0.24955991,-0.47041422,0.47041419,-0.24955989,23.284132,16.489446)"
       id="g1282"
       inkscape:transform-center-x="-1.6937982"
       inkscape:transform-center-y="3.8234345">
      <circle
         style="fill:#000000;fill-opacity:1;stroke:#00000f;stroke-width:0;stroke-linecap:round;stroke-linejoin:bevel;stroke-miterlimit:4;stroke-dasharray:none;stroke-opacity:1"
         id="circle1278"
         cx="4.9999995"
         cy="-25"
         r="4.9999995" />
      <ellipse
         style="fill:#ffffff;fill-opacity:1;stroke:#00000f;stroke-width:0;stroke-linecap:round;stroke-linejoin:bevel;stroke-miterlimit:4;stroke-dasharray:none;stroke-opacity:1"
         id="circle1280"
         cx="4.9999995"
         cy="-25"
         rx="2.4999998"
         ry="1.8031007" />
    </g>
    <g
       id="g1288"
       transform="matrix(-0.10154567,-0.522741,0.52274098,-0.10154566,38.811633,19.846204)"
       inkscape:transform-center-x="-1.233972"
       inkscape:transform-center-y="3.1911362">
      <circle
         r="4.9999995"
         cy="-25"
         cx="4.9999995"
         id="circle1284"
         style="fill:#000000;fill-opacity:1;stroke:#00000f;stroke-width:0;stroke-linecap:round;stroke-linejoin:bevel;stroke-miterlimit:4;stroke-dasharray:none;stroke-opacity:1" />
      <ellipse
         cy="-25"
         cx="4.9999995"
         id="circle1286"
         style="fill:#ffffff;fill-opacity:1;stroke:#00000f;stroke-width:0;stroke-linecap:round;stroke-linejoin:bevel;stroke-miterlimit:4;stroke-dasharray:none;stroke-opacity:1"
         rx="2.4999998"
         ry="1.5243411" />
    </g>
    <path
       id="rect1244"
       style="fill:#afc6e9;stroke:#00000f;stroke-width:1.06503;stroke-linecap:square;stroke-linejoin:bevel;stroke-miterlimit:4;stroke-dasharray:none"
       d="m 8.5199886,1.0616793 c -4.4251903,0 -7.987476,3.3251045 -7.987476,7.4552723 V 36.207571 c 0,4.130168 3.5622857,7.455272 7.987476,7.455272 H 24.495495 c 4.425191,0 7.98803,-3.325104 7.98803,-7.455272 V 8.5169516 c 0,-4.1301678 -3.562839,-7.4552723 -7.98803,-7.4552723 z m 0,7.9874771 c 2.9501194,0 5.3253494,2.3752316 5.3253494,5.3253506 v 2.662676 c 0,2.95012 -2.37523,5.324802 -5.3253494,5.324802 -2.9501198,0 -5.3247958,-2.374682 -5.3247958,-5.324802 v -2.662676 c 0,-2.950119 2.374676,-5.3253506 5.3247958,-5.3253506 z m 15.9755064,0 c 2.950119,0 5.325348,2.3752316 5.325348,5.3253506 v 2.662676 c 0,2.95012 -2.375229,5.324802 -5.325348,5.324802 -2.95012,0 -5.324807,-2.374682 -5.324807,-5.324802 v -2.662676 c 0,-2.950119 2.374687,-5.3253506 5.324807,-5.3253506 z M 2.0883973,27.687337 H 30.921025 c 0.570483,0 1.029743,0.474938 1.029743,1.064962 v 8.520233 c 0,0.590014 -0.45926,1.064962 -1.029743,1.064962 H 2.0883973 c -0.5704808,0 -1.0297303,-0.474948 -1.0297303,-1.064962 v -8.520233 c 0,-0.590024 0.4592495,-1.064962 1.0297303,-1.064962 z" />
    <path
       style="fill:none;fill-rule:evenodd;stroke:#000000;stroke-width:0.852019;stroke-linecap:round;stroke-linejoin:round;stroke-miterlimit:4;stroke-dasharray:none;stroke-opacity:1"
       d="m 14.910353,21.798608 c 0,1.597537 -2.662563,2.13005 -1.065025,2.662563 1.781169,0.714263 3.55614,0.705759 5.325126,0 1.597537,-0.532513 -1.065026,-1.065026 -1.065026,-2.662563"
       id="path1268"
       sodipodi:nodetypes="cccc" />
    <path
       sodipodi:nodetypes="csssssc"
       id="path88"
       d="m 34.20461,40.906189 c 8.388074,-2.951225 13.763044,0.79323 9.661764,-8.200282 -0.656753,-1.440162 -6.126022,1.61449 -7.656452,-0.96924 C 33.185311,26.630405 33.426685,7.1822939 34.20893,4.8686866 35.224133,1.8660706 47.149386,-1.2812333 50.73684,3.5874533 54.324293,8.45614 51.591071,22.763338 52.487934,31.200391 c 0.231428,2.177107 0.532859,16.046355 -18.283324,9.705798 z"
       style="fill:none;fill-rule:evenodd;stroke:#000000;stroke-width:0.687917px;stroke-linecap:butt;stroke-linejoin:miter;stroke-opacity:1" />
  </g>
</svg>
