<?xml version="1.0" encoding="UTF-8" standalone="no"?>
<svg
   xmlns:dc="http://purl.org/dc/elements/1.1/"
   xmlns:cc="http://creativecommons.org/ns#"
   xmlns:rdf="http://www.w3.org/1999/02/22-rdf-syntax-ns#"
   xmlns:svg="http://www.w3.org/2000/svg"
   xmlns="http://www.w3.org/2000/svg"
   xmlns:sodipodi="http://sodipodi.sourceforge.net/DTD/sodipodi-0.dtd"
   xmlns:inkscape="http://www.inkscape.org/namespaces/inkscape"
   sodipodi:docname="smWorried.svg"
   inkscape:version="1.0 (4035a4fb49, 2020-05-01)"
   id="svg1122"
   version="1.1"
   viewBox="0 0 31 41"
   height="41mm"
   width="31mm">
  <defs
     id="defs1116" />
  <sodipodi:namedview
     inkscape:window-maximized="1"
     inkscape:window-y="-8"
     inkscape:window-x="-8"
     inkscape:window-height="705"
     inkscape:window-width="1366"
     showgrid="false"
     inkscape:document-rotation="0"
     inkscape:current-layer="layer1"
     inkscape:document-units="mm"
     inkscape:cy="83.510462"
     inkscape:cx="92.236554"
     inkscape:zoom="3.7965805"
     inkscape:pageshadow="2"
     inkscape:pageopacity="0.0"
     borderopacity="1.0"
     bordercolor="#666666"
     pagecolor="#ffffff"
     id="base" />
  <metadata
     id="metadata1119">
    <rdf:RDF>
      <cc:Work
         rdf:about="">
        <dc:format>image/svg+xml</dc:format>
        <dc:type
           rdf:resource="http://purl.org/dc/dcmitype/StillImage" />
        <dc:title></dc:title>
      </cc:Work>
    </rdf:RDF>
  </metadata>
  <g
     id="layer1"
     inkscape:groupmode="layer"
     inkscape:label="Lager 1">
    <rect
       ry="3.9519694"
       rx="7.894237"
       y="25.499996"
       x="2.9999998"
       height="15.000002"
       width="24.999998"
       id="rect1310"
       style="fill:#000000;stroke:#00000f;stroke-width:0;stroke-linecap:round;stroke-linejoin:round;stroke-miterlimit:4;stroke-dasharray:none" />
    <g
       transform="matrix(0.78173006,0,0,0.73807614,7.0906327,33.14002)"
       id="g1302">
      <circle
         style="fill:#000000;fill-opacity:1;stroke:#00000f;stroke-width:0;stroke-linecap:round;stroke-linejoin:bevel;stroke-miterlimit:4;stroke-dasharray:none;stroke-opacity:1"
         id="circle1298"
         cx="4.9999995"
         cy="-25"
         r="4.9999995" />
      <circle
         style="fill:#ffffff;fill-opacity:1;stroke:#00000f;stroke-width:0;stroke-linecap:round;stroke-linejoin:bevel;stroke-miterlimit:4;stroke-dasharray:none;stroke-opacity:1"
         id="circle1300"
         cx="4.9999995"
         cy="-25"
         r="2.4999998" />
    </g>
    <g
       id="g1308"
       transform="matrix(0.78173006,0,0,0.73807614,16.505314,33.013562)">
      <circle
         r="4.9999995"
         cy="-24.811157"
         cx="4.9999995"
         id="circle1304"
         style="fill:#000000;fill-opacity:1;stroke:#00000f;stroke-width:0;stroke-linecap:round;stroke-linejoin:bevel;stroke-miterlimit:4;stroke-dasharray:none;stroke-opacity:1" />
      <circle
         r="2.4999998"
         cy="-25"
         cx="4.9999995"
         id="circle1306"
         style="fill:#ffffff;fill-opacity:1;stroke:#00000f;stroke-width:0;stroke-linecap:round;stroke-linejoin:bevel;stroke-miterlimit:4;stroke-dasharray:none;stroke-opacity:1" />
    </g>
    <path
       sodipodi:nodetypes="sssssssssssssssssssssssaaaaaaaaaaa"
       id="path1294"
       style="fill:#afc6e9;stroke:#00000f;stroke-width:1;stroke-linecap:square;stroke-linejoin:bevel;stroke-miterlimit:4;stroke-dasharray:none"
       d="M 7.9998009,0.5 C 3.8447948,0.5 0.5,3.622091 0.5,7.500089 v 25.999963 c 0,3.877998 3.3447948,7.000089 7.4998009,7.000089 H 22.999919 c 4.155007,0 7.500316,-3.122091 7.500316,-7.000089 V 7.500089 C 30.500235,3.622091 27.154926,0.5 22.999919,0.5 Z m 0,7.499796 c 2.7700001,0 5.0002111,2.230204 5.0002111,5.000218 v 2.500099 c 0,2.770014 -2.230211,4.999697 -5.0002111,4.999697 -2.7699999,0 -4.999695,-2.229683 -4.999695,-4.999697 v -2.500099 c 0,-2.770014 2.2296951,-5.000218 4.999695,-5.000218 z m 15.0001181,0 c 2.77,0 5.00021,2.230204 5.00021,5.000218 v 2.500099 c 0,2.770014 -2.23021,4.999697 -5.00021,4.999697 -2.77,0 -4.999695,-2.229683 -4.999695,-4.999697 v -2.500099 c 0,-2.770014 2.229695,-5.000218 4.999695,-5.000218 z M 7.9999996,27.999997 c 4.6193954,-1.913422 10.3806054,-1.913423 15.0000004,0 1.088804,0.450999 2.049003,1.411089 2.499999,2.500011 0.637807,1.539766 0.637807,3.460192 0,5.000003 -0.450996,1.088745 -1.336705,2.311212 -2.499999,2.499987 -1.839329,0.298434 -3.186458,-2.071859 -5,-2.499987 -1.622082,-0.382987 -3.377919,-0.382987 -5,0 -1.813542,0.428194 -3.1606713,2.798464 -5.0000004,2.499987 -1.1632938,-0.1891 -2.0490028,-1.411188 -2.4999998,-2.499987 -0.6378081,-1.539799 -0.6378044,-3.460202 0,-5.000003 0.4509965,-1.088805 1.4111955,-2.049012 2.4999998,-2.500011 z" />
    <path
       style="fill:none;fill-rule:evenodd;stroke:#000000;stroke-width:0.799999;stroke-linecap:round;stroke-linejoin:round;stroke-miterlimit:4;stroke-dasharray:none;stroke-opacity:1"
       d="m 14,21.500006 c -0.500001,1.578239 -3.000001,2.104246 -1.5,2.630427 3,0.526007 3,0.526007 6,0 1.5,-0.526008 -1,-1.052232 -1.5,-2.630427"
       id="path1296"
       sodipodi:nodetypes="cccc" />
  </g>
</svg>
